<?xml version="1.0" standalone="no"?>
<!DOCTYPE svg PUBLIC "-//W3C//DTD SVG 20010904//EN"
 "http://www.w3.org/TR/2001/REC-SVG-20010904/DTD/svg10.dtd">
<svg version="1.0" xmlns="http://www.w3.org/2000/svg"
 width="550.000000pt" height="550.000000pt" viewBox="0 0 550.000000 550.000000"
 preserveAspectRatio="xMidYMid meet">
<metadata>
Created by potrace 1.14, written by Peter Selinger 2001-2017
</metadata>
<g transform="translate(0.000000,550.000000) scale(0.100000,-0.100000)"
fill="#000000" stroke="none">
<path d="M3419 4555 c-189 -38 -368 -148 -491 -304 -108 -136 -163 -277 -175
-450 l-6 -94 84 5 c278 16 585 300 659 610 23 96 28 249 8 247 -7 0 -43 -7
-79 -14z"/>
<path d="M3385 3704 c-96 -13 -170 -32 -345 -89 -107 -35 -212 -68 -232 -73
-48 -13 -113 2 -273 61 -275 102 -410 113 -627 52 -181 -51 -341 -156 -455
-299 -364 -458 -309 -1264 132 -1926 157 -236 315 -404 434 -463 55 -27 77
-32 155 -35 100 -4 130 3 371 89 109 39 131 43 237 47 139 5 225 -11 373 -71
268 -108 442 -83 625 90 185 174 324 388 451 693 l48 115 -68 35 c-211 111
-346 281 -413 518 -29 101 -31 295 -4 392 51 188 181 367 348 478 l38 24 -22
31 c-75 105 -226 216 -361 265 -134 48 -320 78 -412 66z"/>
</g>
</svg>
